<svg xmlns="http://www.w3.org/2000/svg" xmlns:xlink="http://www.w3.org/1999/xlink" width="500" zoomAndPan="magnify" viewBox="0 0 375 374.999991" height="500" preserveAspectRatio="xMidYMid meet" version="1.0"><path fill="#000000" d="M 337.082031 232.304688 C 334.15625 232.503906 331.230469 232.585938 328.292969 232.613281 C 328.199219 229.433594 327.941406 226.269531 327.875 223.09375 C 331.832031 224.957031 335.777344 226.914062 339.710938 228.886719 C 338.757812 229.957031 337.914062 231.152344 337.082031 232.304688 Z M 300.339844 232.222656 L 299.375 232.222656 C 286.371094 232.398438 273.394531 232.570312 260.421875 232.585938 C 260.648438 229.167969 260.796875 225.746094 260.890625 222.300781 C 265.25 222.476562 269.625 222.824219 273.984375 222.746094 C 275.394531 222.71875 276.347656 221.953125 276.804688 220.988281 C 277.058594 220.613281 277.261719 220.171875 277.355469 219.609375 C 277.570312 218.050781 277.785156 216.539062 278.011719 215.023438 C 278.121094 215.050781 278.253906 215.0625 278.386719 215.0625 C 278.386719 215.0625 284.492188 215.0625 288.855469 215.0625 C 290.4375 215.53125 292.15625 214.957031 292.503906 212.957031 C 295.132812 213.160156 297.722656 213.414062 300.339844 213.46875 Z M 411.21875 124.742188 C 411.273438 122.210938 408.898438 121.191406 406.992188 121.726562 C 406.320312 121.554688 405.582031 121.59375 404.816406 121.914062 C 371.835938 136.003906 336.878906 144.839844 305.628906 162.859375 C 305.304688 163.046875 305.035156 163.289062 304.820312 163.527344 C 301.132812 162.859375 297.375 163.074219 293.617188 163.140625 C 293.09375 162.441406 292.300781 161.933594 291.1875 161.867188 C 286.503906 161.585938 281.835938 161.773438 277.152344 161.839844 C 277.125 160.875 277.113281 159.921875 277.113281 158.945312 C 277.113281 157.105469 275.851562 156.074219 274.46875 155.820312 C 274.039062 155.550781 273.503906 155.324219 272.898438 155.285156 C 269.183594 154.960938 265.464844 154.480469 261.761719 154.277344 C 261.789062 150.660156 261.695312 147.078125 261.386719 143.527344 C 261.253906 141.902344 259.992188 140.039062 258.097656 140.242188 C 255.28125 140.535156 252.503906 140.722656 249.683594 140.804688 C 264.378906 136.394531 277.664062 126.632812 287.820312 112.53125 C 306.40625 83.128906 290.4375 37.375 261.871094 19.972656 C 230.871094 1.136719 190.738281 19.167969 174.394531 48.339844 C 171.523438 53.476562 169.429688 58.8125 168.046875 64.171875 C 163.148438 45.953125 151.664062 29.074219 136.714844 19.972656 C 105.71875 1.136719 65.570312 19.167969 49.238281 48.339844 C 31.472656 80.046875 43.160156 118.832031 74.800781 135.347656 C 75.886719 135.910156 77.015625 136.460938 78.140625 136.96875 C 78.113281 137.078125 78.0625 137.210938 78.0625 137.320312 C 76.503906 137.210938 74.867188 138.015625 74.53125 139.800781 C 68.277344 140.347656 62.011719 140.1875 55.800781 140.898438 C 55.4375 140.28125 54.859375 139.773438 54.027344 139.492188 C 51.15625 138.527344 48.660156 136.636719 45.789062 135.65625 C 45.441406 135.535156 45.132812 135.496094 44.851562 135.496094 C 43.308594 135.148438 41.671875 135.765625 41.363281 137.773438 C 40.085938 146.167969 38.890625 155.378906 42.097656 163.460938 C 42.382812 164.238281 42.890625 164.789062 43.46875 165.136719 C 44.191406 165.996094 45.304688 166.492188 46.6875 166.144531 C 50.203125 165.246094 52.484375 162.683594 55.101562 160.40625 C 55.4375 160.527344 55.828125 160.59375 56.242188 160.59375 C 61.488281 160.484375 66.734375 160.621094 71.984375 160.699219 C 72.007812 161.972656 72.089844 165.96875 72.183594 171.734375 C 69.378906 171.734375 66.589844 171.828125 63.835938 172.550781 C 63.769531 172.550781 63.730469 172.589844 63.664062 172.589844 C 62.414062 172.617188 61.246094 173.316406 60.992188 174.992188 C 60.898438 175.582031 60.832031 176.199219 60.75 176.800781 C 52.996094 176.695312 45.292969 176.171875 37.605469 177.378906 C 28.023438 171.34375 17.25 167.617188 6.445312 164.453125 C 5.761719 164.253906 5.144531 164.28125 4.59375 164.441406 C 3.441406 164.5625 2.367188 165.273438 1.992188 166.757812 C -0.140625 174.804688 1.347656 183.128906 1.28125 191.347656 C 1.226562 201.039062 1.199219 210.613281 2.796875 220.199219 C 2.890625 220.773438 3.105469 221.230469 3.386719 221.578125 C 3.882812 222.4375 4.769531 223.011719 6.109375 222.878906 C 17.757812 221.859375 27.109375 213.816406 36.15625 207.261719 C 36.410156 207.273438 36.652344 207.273438 36.917969 207.234375 C 37.1875 207.328125 37.496094 207.382812 37.820312 207.382812 C 45.65625 207.582031 53.476562 207.058594 61.316406 206.992188 C 61.476562 207.957031 61.625 208.949219 61.796875 209.929688 C 61.691406 211 62.148438 212.085938 63.460938 212.691406 C 66.480469 214.125 69.554688 214.367188 72.746094 214.378906 C 72.882812 229.433594 72.949219 244.71875 72.828125 256.058594 C 72.800781 257.199219 73.257812 258.042969 73.957031 258.59375 C 74.332031 259.050781 74.8125 259.425781 75.5 259.640625 C 85.027344 262.84375 95.128906 261.394531 105.003906 261.394531 C 115.792969 261.394531 126.570312 261.421875 137.359375 261.488281 C 137.023438 264.574219 136.886719 267.667969 137.023438 270.78125 C 135.734375 271.222656 134.433594 271.636719 133.144531 272.082031 C 132.703125 272.226562 132.285156 272.457031 131.949219 272.765625 C 131.011719 273.246094 130.300781 274.160156 130.300781 275.527344 C 130.300781 277.28125 130.285156 279.039062 130.257812 280.78125 C 117.980469 281.425781 105.691406 280.191406 93.414062 280.941406 C 93.414062 280.742188 93.398438 280.527344 93.398438 280.324219 C 93.398438 279.707031 93.238281 279.210938 92.996094 278.769531 C 92.996094 277.738281 92.984375 276.707031 92.984375 275.660156 C 92.984375 273.917969 91.855469 272.886719 90.539062 272.589844 C 90.136719 272.390625 89.683594 272.253906 89.132812 272.226562 C 72.882812 271.464844 56.457031 268.179688 40.152344 268.675781 C 39.507812 268.703125 38.988281 268.875 38.542969 269.144531 C 37.253906 269.117188 36.046875 269.816406 35.738281 271.503906 C 34.746094 277.148438 33.429688 282.660156 33.980469 288.421875 C 34.019531 289.039062 34.234375 289.5625 34.53125 290.003906 C 34.71875 291.464844 35.753906 292.808594 37.683594 292.808594 C 55.34375 292.765625 73.015625 292.285156 90.648438 293.625 C 92.675781 293.773438 93.707031 292.363281 93.789062 290.808594 C 93.882812 290.554688 93.949219 290.246094 93.949219 289.910156 C 93.960938 289.121094 93.949219 288.316406 93.894531 287.496094 C 106 286.8125 118.101562 287.980469 130.21875 287.390625 C 130.191406 289.105469 130.179688 290.808594 130.179688 292.523438 C 130.179688 292.660156 130.191406 292.765625 130.21875 292.875 C 130.191406 294.054688 130.703125 295.285156 131.804688 295.796875 C 131.949219 295.863281 132.113281 295.945312 132.257812 296.039062 C 128.570312 298.210938 124.839844 300.316406 120.972656 302.152344 C 120.90625 302.203125 120.867188 302.246094 120.800781 302.257812 C 119.566406 302.621094 118.625 303.597656 118.773438 305.261719 C 119.484375 312.59375 118.8125 319.902344 118.519531 327.207031 C 118.464844 327.957031 118.640625 328.523438 118.949219 329.003906 C 119.351562 330.171875 120.328125 331.070312 121.941406 331.070312 C 152.414062 330.679688 183.304688 330.34375 213.738281 332.007812 L 213.976562 332.007812 C 215.789062 332.234375 217.761719 331.203125 217.734375 328.871094 C 217.628906 321.628906 216.488281 314.484375 216.5 307.273438 C 216.769531 306.308594 216.566406 305.207031 215.519531 304.324219 C 211.28125 300.703125 206.410156 297.980469 202.035156 294.5625 C 202.195312 294.429688 202.613281 294.105469 202.453125 294.214844 C 202.921875 293.839844 203.285156 293.449219 203.550781 292.96875 C 203.996094 292.429688 204.277344 291.761719 204.277344 290.875 C 204.261719 287 204.0625 283.113281 204.410156 279.226562 C 204.492188 278.433594 204.316406 277.777344 203.96875 277.296875 C 203.753906 276.679688 203.335938 276.144531 202.652344 275.699219 C 200.546875 274.359375 198.519531 272.910156 196.480469 271.492188 C 197.058594 268.070312 197.675781 264.640625 197.433594 261.195312 C 209.964844 261.15625 222.484375 261.4375 234.738281 262.710938 C 241.390625 263.421875 252.058594 265.699219 257.546875 260.214844 C 258.929688 258.835938 259.039062 256.730469 259.171875 254.921875 C 259.5625 249.707031 259.734375 244.4375 260.003906 239.167969 C 273.140625 239.15625 286.25 238.980469 299.375 238.804688 C 312.28125 238.632812 325.351562 239.785156 338.222656 238.820312 C 339.121094 238.753906 339.816406 238.402344 340.328125 237.878906 C 341.050781 237.613281 341.683594 237.128906 342.167969 236.472656 C 343.359375 234.8125 344.40625 233.324219 345.882812 231.957031 C 348.957031 233.496094 352.027344 235.011719 355.128906 236.445312 C 372.25 244.53125 390.648438 248.953125 408.871094 253.699219 C 410.519531 254.128906 411.796875 253.363281 412.453125 252.226562 C 412.867188 251.714844 413.109375 251.046875 413.042969 250.160156 C 410.425781 208.707031 410.519531 166.304688 411.21875 124.742188 " fill-opacity="1" fill-rule="nonzero"/><path fill="#000000" d="M 11.597656 215.101562 C 12.109375 200.851562 11.144531 186.519531 9.71875 172.335938 C 9.0625 172.109375 8.378906 171.921875 7.722656 171.71875 C 6.820312 178.167969 7.960938 184.859375 7.867188 191.347656 C 7.761719 199.578125 7.667969 207.742188 8.769531 215.878906 C 9.734375 215.679688 10.6875 215.4375 11.597656 215.101562 Z M 32.503906 201.816406 C 31.082031 195.625 32.855469 188.800781 33.5 182.59375 C 27.296875 178.796875 20.65625 175.996094 13.800781 173.664062 C 15.113281 186.871094 15.972656 200.167969 15.597656 213.441406 C 21.730469 210.410156 27.296875 205.636719 32.503906 201.816406 Z M 41.75 183.4375 C 41.132812 183.503906 40.542969 183.558594 39.953125 183.652344 C 39.1875 189 37.308594 195.71875 38.960938 200.796875 C 39.578125 200.824219 40.167969 200.824219 40.785156 200.824219 C 41.710938 195.085938 41.75 189.242188 41.75 183.4375 Z M 49.761719 200.691406 C 49.960938 194.832031 49.855469 188.960938 49.75 183.101562 C 48.378906 183.074219 47.050781 183.128906 45.710938 183.167969 C 45.710938 189.066406 45.640625 194.96875 44.757812 200.796875 C 46.433594 200.785156 48.097656 200.746094 49.761719 200.691406 Z M 50.929688 155.324219 C 50.003906 152.199219 50.472656 148.59375 51.144531 145.390625 C 49.789062 144.800781 48.488281 144.101562 47.171875 143.417969 C 46.539062 148.445312 46.300781 153.621094 47.46875 158.515625 C 48.6875 157.5625 49.789062 156.355469 50.929688 155.324219 Z M 53.746094 200.558594 C 55.972656 200.503906 58.214844 200.449219 60.484375 200.410156 C 59.90625 194.753906 59.730469 189.042969 60.082031 183.371094 C 57.960938 183.316406 55.828125 183.25 53.691406 183.195312 C 53.800781 188.972656 53.921875 194.765625 53.746094 200.558594 Z M 68.039062 207.476562 C 69.5 207.863281 71.109375 207.917969 72.695312 207.890625 C 72.558594 197.019531 72.425781 186.613281 72.292969 178.316406 C 70.535156 178.300781 68.800781 178.316406 67.085938 178.609375 C 65.835938 188.167969 66.414062 197.96875 68.039062 207.476562 Z M 74.90625 154.171875 C 74.492188 151.597656 74.382812 149.007812 74.382812 146.410156 C 68.777344 146.863281 63.113281 146.664062 57.515625 147.253906 C 57.300781 148.285156 57.128906 149.316406 57.074219 150.390625 C 57.035156 151.207031 56.765625 153.273438 57.277344 153.996094 C 63.167969 153.902344 69.015625 154.078125 74.90625 154.171875 Z M 86.167969 286.761719 C 86.394531 284.050781 86.40625 281.359375 86.40625 278.636719 C 71.566406 277.699219 56.589844 274.988281 41.738281 275.230469 C 41.054688 278.90625 40.394531 282.496094 40.449219 286.210938 C 55.691406 286.144531 70.9375 285.863281 86.167969 286.761719 Z M 87.617188 155.136719 C 87.683594 151.410156 87.160156 147.695312 86.917969 143.96875 C 84.917969 144.035156 82.917969 144.117188 80.917969 144.183594 C 80.773438 148.042969 80.664062 152.039062 81.886719 155.617188 C 83.804688 155.445312 85.710938 155.269531 87.617188 155.136719 Z M 110.253906 154.386719 C 109.824219 150.726562 109.554688 147.066406 109.339844 143.390625 C 107.074219 143.5 104.816406 143.484375 102.523438 143.324219 C 99.519531 143.460938 96.511719 143.59375 93.507812 143.726562 C 93.707031 147.414062 94.230469 151.074219 94.203125 154.789062 C 99.558594 154.519531 104.925781 154.414062 110.253906 154.386719 Z M 120.289062 154.453125 C 120.289062 150.875 120.289062 146.570312 120.289062 142.601562 C 118.761719 142.667969 117.242188 142.722656 115.699219 142.789062 C 114.894531 142.910156 114.078125 143.003906 113.273438 143.082031 C 113.511719 146.863281 113.769531 150.632812 114.210938 154.371094 C 116.25 154.386719 118.277344 154.414062 120.289062 154.453125 Z M 156.960938 109.191406 C 172.878906 84.082031 159.835938 39.679688 133.386719 25.65625 C 105.449219 10.871094 68.9375 23.511719 54.925781 51.652344 C 40.71875 80.234375 48.097656 115.359375 78.113281 129.664062 C 87.292969 134.035156 96.472656 136.3125 105.339844 136.59375 C 108.320312 136.460938 111.3125 136.328125 114.277344 136.207031 C 130.703125 134.15625 145.609375 124.984375 156.960938 109.191406 Z M 178.699219 154.25 C 178.632812 150.042969 178.015625 145.914062 177.386719 141.769531 C 167.253906 141.570312 157.164062 141.488281 146.964844 141.703125 C 139.546875 141.863281 132.113281 142.117188 124.675781 142.425781 C 124.675781 146.449219 124.675781 152.011719 124.675781 154.519531 C 133.535156 154.695312 142.402344 155.042969 151.3125 155.3125 C 160.492188 155.566406 169.5625 154.652344 178.699219 154.25 Z M 183.921875 154.105469 C 184.738281 154.105469 185.542969 154.105469 186.335938 154.105469 C 186.253906 150.027344 185.894531 145.980469 185.328125 141.945312 C 184.015625 141.902344 182.699219 141.878906 181.359375 141.863281 C 181.988281 145.914062 182.566406 150 182.632812 154.144531 C 183.0625 154.128906 183.503906 154.105469 183.921875 154.105469 Z M 190.160156 269.773438 C 190.683594 266.945312 191.300781 264.011719 190.859375 261.222656 C 176.835938 261.355469 162.757812 261.769531 148.964844 261.570312 C 147.300781 261.542969 145.609375 261.542969 143.933594 261.53125 C 143.636719 264.332031 143.503906 267.148438 143.570312 269.949219 C 159.527344 270.175781 175.144531 271.730469 190.160156 269.773438 Z M 197.675781 289.722656 C 197.648438 286.574219 197.554688 283.460938 197.753906 280.324219 C 195.808594 279.011719 193.878906 277.628906 191.917969 276.316406 C 191.851562 276.261719 191.8125 276.222656 191.742188 276.183594 C 175.292969 278.195312 144.308594 276.707031 140.445312 276.503906 C 140.257812 276.625 140.054688 276.707031 139.839844 276.773438 C 138.847656 277.109375 137.855469 277.429688 136.875 277.765625 C 136.847656 282.1875 136.808594 286.625 136.78125 291.050781 C 137.0625 291.277344 137.371094 291.492188 137.667969 291.707031 C 156.453125 291.828125 175.226562 292.699219 194.023438 292.660156 C 195.300781 291.894531 196.441406 290.796875 197.675781 289.722656 Z M 200.816406 135.765625 C 200.519531 135.601562 200.238281 135.484375 199.957031 135.347656 C 184.324219 127.183594 173.5625 113.589844 168.824219 98.078125 C 167.523438 103.160156 165.496094 108.039062 162.664062 112.53125 C 155.59375 122.332031 147.019531 130.054688 137.480469 135.347656 C 142.09375 135.214844 146.722656 135.105469 151.339844 135.066406 C 167.914062 134.878906 184.335938 135.363281 200.816406 135.765625 Z M 204.238281 154.25 C 204.167969 150.308594 204.0625 146.355469 204.023438 142.414062 C 199.125 142.304688 194.199219 142.171875 189.300781 142.039062 C 189.824219 146.046875 190.199219 150.070312 190.292969 154.105469 C 194.949219 154.144531 199.582031 154.238281 204.238281 154.25 Z M 167.738281 305.691406 C 180.042969 304.964844 192.375 304.390625 204.71875 304.445312 C 202.023438 302.59375 199.273438 300.796875 196.722656 298.734375 C 196.683594 298.757812 196.65625 298.773438 196.613281 298.800781 C 196.105469 299.039062 195.582031 299.148438 195.058594 299.175781 C 194.855469 299.214844 194.640625 299.242188 194.402344 299.253906 C 176.125 299.308594 157.863281 298.492188 139.597656 298.34375 C 139.398438 299.039062 138.953125 299.671875 138.136719 300.179688 C 134.808594 302.179688 131.46875 304.148438 128.019531 305.972656 C 141.101562 308.667969 154.441406 306.480469 167.738281 305.691406 Z M 210.972656 325.304688 C 210.691406 319.6875 210.035156 314.070312 209.9375 308.425781 C 194.535156 308.117188 179.007812 308.71875 163.660156 309.898438 C 150.832031 310.90625 138.136719 312.449219 125.628906 309.484375 C 125.777344 314.457031 125.46875 319.445312 125.226562 324.445312 C 153.714844 324.097656 182.539062 323.855469 210.972656 325.304688 Z M 213.496094 148.136719 C 213.347656 146.289062 213.121094 144.453125 212.90625 142.601562 C 212.140625 142.601562 211.375 142.589844 210.625 142.5625 C 210.652344 146.460938 210.757812 150.351562 210.824219 154.238281 C 211.5625 154.210938 212.289062 154.183594 213.039062 154.171875 C 213.039062 152.722656 213.078125 151.25 213.066406 149.800781 C 213.066406 149.144531 213.242188 148.59375 213.496094 148.136719 Z M 234.375 211.46875 C 238.84375 211.441406 236.253906 188.691406 236.132812 185.3125 C 235.945312 179.992188 235.714844 174.683594 235.636719 169.347656 C 235.59375 166.34375 236.117188 166.960938 233.300781 166.933594 C 228.632812 166.894531 223.933594 167.027344 219.25 167.175781 C 208.972656 167.511719 198.722656 167.898438 188.441406 168.355469 C 179.316406 168.785156 170.382812 168.234375 161.269531 168.140625 C 152.898438 168.074219 144.132812 169.105469 135.816406 167.75 C 126.570312 166.25 116.976562 166.558594 107.648438 166.867188 C 105.207031 166.960938 102.75 167 100.308594 167.242188 C 96.363281 167.632812 98.417969 166.894531 98.753906 170.03125 C 99.71875 179.457031 100.347656 188.785156 99.757812 198.265625 C 99.652344 200.585938 97.785156 210.15625 101.894531 210.238281 C 106.144531 210.34375 110.414062 210.4375 114.695312 210.546875 C 124.664062 210.746094 134.632812 210.921875 144.605469 211.066406 C 164.558594 211.335938 184.511719 211.511719 204.476562 211.511719 C 214.449219 211.539062 224.417969 211.511719 234.375 211.46875 Z M 244.773438 186.628906 C 244.988281 176.695312 245.269531 166.757812 245.136719 156.839844 C 245.121094 153.96875 227.289062 154.734375 220.21875 155.003906 C 220.175781 155.484375 220.136719 155.980469 220.042969 156.492188 C 219.601562 159.105469 218.246094 161.25 215.453125 161.730469 C 213.105469 162.148438 210.863281 161.316406 208.597656 160.835938 C 199.03125 160.835938 189.460938 160.246094 179.882812 160.859375 C 168.90625 161.585938 158.101562 162.175781 147.085938 161.664062 C 127.628906 160.792969 108.214844 160.269531 88.808594 161.625 C 88.996094 189.539062 88.808594 217.609375 88.78125 245.160156 C 121.847656 245.09375 155.070312 243.566406 188.226562 242.949219 C 189.019531 233.738281 187.71875 224.582031 187.679688 215.371094 C 157.660156 215.222656 127.628906 214.820312 97.613281 214.070312 C 96.550781 214.058594 95.640625 213.199219 95.640625 212.101562 C 95.691406 207.476562 95.585938 202.863281 95.8125 198.265625 C 96.3125 190.140625 96.027344 182.097656 95.210938 174.027344 C 94.980469 171.625 93.023438 166.613281 95.101562 164.519531 C 97.828125 161.824219 106.507812 162.925781 109.796875 162.859375 C 132.191406 162.457031 154.414062 165.246094 176.808594 164.800781 C 195.609375 164.441406 214.488281 162.5625 233.300781 162.992188 C 238.921875 163.101562 239.460938 163.40625 239.582031 169.347656 C 239.957031 184.027344 240.707031 198.71875 240.640625 213.414062 C 240.640625 214.5 239.742188 215.371094 238.667969 215.398438 C 222.980469 215.464844 207.308594 215.464844 191.636719 215.398438 C 191.675781 224.566406 192.964844 233.683594 192.1875 242.855469 C 210.035156 242.574219 227.878906 242.574219 245.671875 243.214844 C 245.578125 224.328125 244.371094 205.542969 244.773438 186.628906 Z M 253.992188 178.785156 C 253.992188 168.382812 255.414062 157.496094 255 147.078125 C 243.40625 147.976562 231.8125 147.171875 220.191406 147.066406 C 220.152344 147.066406 220.136719 147.066406 220.082031 147.039062 C 220.109375 147.1875 220.109375 147.320312 220.109375 147.453125 C 220.246094 148.6875 220.324219 149.90625 220.351562 151.140625 C 229.261719 151.179688 238.160156 151.25 247.070312 150.617188 C 248.140625 150.523438 249.027344 151.558594 249.054688 152.589844 C 249.445312 182.96875 249.539062 213.480469 249.617188 243.847656 C 249.617188 244.664062 249.230469 245.160156 248.691406 245.46875 C 248.636719 246.394531 248.019531 247.25 246.8125 247.199219 C 193.824219 245.160156 140.402344 249.0625 87.359375 249.117188 C 86.019531 249.128906 85.402344 248.054688 85.46875 247.023438 C 85.09375 246.742188 84.835938 246.328125 84.835938 245.777344 C 84.851562 218.09375 85.050781 189.992188 84.851562 161.933594 C 83.027344 162.082031 81.214844 162.214844 79.402344 162.414062 C 79.09375 162.441406 78.839844 162.441406 78.570312 162.390625 C 78.625 191.761719 79.710938 223.363281 79.402344 253.941406 C 89.898438 256.675781 102.226562 254.8125 112.871094 254.8125 C 124.90625 254.8125 136.929688 254.8125 148.964844 254.988281 C 173.871094 255.363281 198.816406 254.921875 223.695312 255.46875 C 230.011719 255.632812 252.367188 261.046875 252.582031 252.359375 C 252.851562 241.515625 253.925781 230.773438 254.140625 219.929688 C 253.898438 219.191406 253.925781 218.359375 254.195312 217.609375 C 254.207031 217.410156 254.207031 217.195312 254.207031 216.992188 C 254.273438 204.242188 253.992188 191.519531 253.992188 178.785156 Z M 271.25 216.136719 C 272.5625 206.710938 273.703125 197.742188 272.765625 188.128906 C 271.878906 179.28125 270.792969 170.511719 270.589844 161.652344 C 267.597656 161.34375 264.621094 161.007812 261.601562 160.859375 C 261.253906 169.695312 260.527344 178.625 260.621094 187.273438 C 260.703125 196.722656 261.011719 206.226562 260.96875 215.71875 C 264.390625 215.878906 267.828125 216.09375 271.25 216.136719 Z M 282.117188 109.191406 C 298.03125 84.082031 284.988281 39.679688 258.542969 25.65625 C 230.605469 10.871094 194.09375 23.511719 180.082031 51.652344 C 165.871094 80.234375 173.253906 115.359375 203.269531 129.664062 C 233.113281 143.863281 262.753906 136.113281 282.117188 109.191406 Z M 286.503906 208.480469 C 288.15625 195.167969 287.980469 181.75 287.914062 168.339844 C 284.4375 168.273438 280.992188 168.355469 277.527344 168.421875 C 278.160156 176.386719 279.328125 184.28125 279.664062 192.300781 C 279.917969 197.847656 279.5 203.15625 278.871094 208.480469 C 281.902344 208.480469 283.917969 208.480469 286.503906 208.480469 Z M 300.339844 232.222656 C 300.339844 225.601562 300.339844 220.0625 300.339844 213.46875 C 297.722656 213.414062 295.132812 213.160156 292.503906 212.957031 C 292.15625 214.957031 290.4375 215.53125 288.855469 215.0625 C 284.492188 215.0625 278.386719 215.0625 278.386719 215.0625 C 278.253906 215.0625 278.121094 215.050781 278.011719 215.023438 C 277.785156 216.539062 277.570312 218.050781 277.355469 219.609375 C 277.261719 220.171875 277.058594 220.613281 276.804688 220.988281 C 276.347656 221.953125 275.394531 222.71875 273.984375 222.746094 C 269.625 222.824219 265.25 222.476562 260.890625 222.300781 C 260.796875 225.746094 260.648438 229.167969 260.421875 232.585938 C 273.394531 232.570312 286.371094 232.398438 299.375 232.222656 C 299.710938 232.222656 300.019531 232.222656 300.339844 232.222656 Z M 302.058594 206.964844 C 304.527344 194.753906 302.472656 182.296875 303.132812 169.921875 C 300.300781 169.453125 297.375 169.617188 294.503906 169.695312 C 294.542969 181.988281 294.570312 194.242188 293.308594 206.46875 C 296.207031 206.75 299.160156 207.167969 302.058594 206.964844 Z M 321.703125 232.570312 C 321.59375 228.429688 321.179688 224.273438 321.3125 220.105469 C 316.605469 218.066406 311.828125 216.203125 306.929688 214.605469 C 306.929688 220.8125 306.929688 228.375 306.929688 232.238281 C 311.839844 232.332031 316.792969 232.476562 321.703125 232.570312 Z M 337.082031 232.304688 C 337.914062 231.152344 338.757812 229.957031 339.710938 228.886719 C 335.777344 226.914062 331.832031 224.957031 327.875 223.09375 C 327.941406 226.269531 328.199219 229.433594 328.292969 232.613281 C 331.230469 232.585938 334.15625 232.503906 337.082031 232.304688 Z M 406.238281 246.21875 C 403.957031 207.449219 403.957031 167.925781 404.574219 129.074219 C 372.976562 142.1875 339.710938 151.035156 309.828125 168.058594 C 308.792969 181.480469 311.117188 194.925781 308.527344 208.199219 C 324.777344 213.480469 339.578125 221.886719 355.007812 229.152344 C 371.5 236.914062 388.714844 241.648438 406.238281 246.21875 Z M 202.453125 294.214844 C 202.613281 294.105469 202.195312 294.429688 202.035156 294.5625 C 206.410156 297.980469 211.28125 300.703125 215.519531 304.324219 C 216.566406 305.207031 216.769531 306.308594 216.5 307.273438 C 216.488281 314.484375 217.628906 321.628906 217.734375 328.871094 C 217.761719 331.203125 215.789062 332.234375 213.976562 332.007812 C 213.925781 332.007812 213.832031 332.007812 213.738281 332.007812 C 183.304688 330.34375 152.414062 330.679688 121.941406 331.070312 C 120.328125 331.070312 119.351562 330.171875 118.949219 329.003906 C 118.640625 328.523438 118.464844 327.957031 118.519531 327.207031 C 118.8125 319.902344 119.484375 312.59375 118.773438 305.261719 C 118.625 303.597656 119.566406 302.621094 120.800781 302.257812 C 120.867188 302.246094 120.90625 302.203125 120.972656 302.152344 C 124.839844 300.316406 128.570312 298.210938 132.257812 296.039062 C 132.113281 295.945312 131.949219 295.863281 131.804688 295.796875 C 130.703125 295.285156 130.191406 294.054688 130.21875 292.875 C 130.191406 292.765625 130.179688 292.660156 130.179688 292.523438 C 130.179688 290.808594 130.191406 289.105469 130.21875 287.390625 C 118.101562 287.980469 106 286.8125 93.894531 287.496094 C 93.949219 288.316406 93.960938 289.121094 93.949219 289.910156 C 93.949219 290.246094 93.882812 290.554688 93.789062 290.808594 C 93.707031 292.363281 92.675781 293.773438 90.648438 293.625 C 73.015625 292.285156 55.34375 292.765625 37.683594 292.808594 C 35.753906 292.808594 34.71875 291.464844 34.53125 290.003906 C 34.234375 289.5625 34.019531 289.039062 33.980469 288.421875 C 33.429688 282.660156 34.746094 277.148438 35.738281 271.503906 C 36.046875 269.816406 37.253906 269.117188 38.542969 269.144531 C 38.988281 268.875 39.507812 268.703125 40.152344 268.675781 C 56.457031 268.179688 72.882812 271.464844 89.132812 272.226562 C 89.683594 272.253906 90.136719 272.390625 90.539062 272.589844 C 91.855469 272.886719 92.984375 273.917969 92.984375 275.660156 C 92.984375 276.707031 92.996094 277.738281 92.996094 278.769531 C 93.238281 279.210938 93.398438 279.707031 93.398438 280.324219 C 93.398438 280.527344 93.414062 280.742188 93.414062 280.941406 C 105.691406 280.191406 117.980469 281.425781 130.257812 280.78125 C 130.285156 279.039062 130.300781 277.28125 130.300781 275.527344 C 130.300781 274.160156 131.011719 273.246094 131.949219 272.765625 C 132.285156 272.457031 132.703125 272.226562 133.144531 272.082031 C 134.433594 271.636719 135.734375 271.222656 137.023438 270.78125 C 136.886719 267.667969 137.023438 264.574219 137.359375 261.488281 C 126.570312 261.421875 115.792969 261.394531 105.003906 261.394531 C 95.128906 261.394531 85.027344 262.84375 75.5 259.640625 C 74.8125 259.425781 74.332031 259.050781 73.96875 258.59375 C 73.257812 258.042969 72.800781 257.199219 72.828125 256.058594 C 72.949219 244.71875 72.882812 229.433594 72.761719 214.378906 C 69.554688 214.367188 66.480469 214.125 63.460938 212.691406 C 62.148438 212.085938 61.691406 211 61.796875 209.929688 C 61.625 208.949219 61.476562 207.957031 61.316406 206.992188 C 53.476562 207.058594 45.65625 207.582031 37.820312 207.382812 C 37.496094 207.382812 37.1875 207.328125 36.917969 207.234375 C 36.652344 207.273438 36.410156 207.273438 36.15625 207.261719 C 27.109375 213.816406 17.757812 221.859375 6.109375 222.878906 C 4.769531 223.011719 3.882812 222.4375 3.386719 221.578125 C 3.105469 221.230469 2.890625 220.773438 2.796875 220.199219 C 1.199219 210.613281 1.226562 201.039062 1.28125 191.347656 C 1.347656 183.128906 -0.140625 174.804688 1.992188 166.757812 C 2.367188 165.273438 3.441406 164.5625 4.59375 164.441406 C 5.144531 164.28125 5.761719 164.253906 6.445312 164.453125 C 17.25 167.617188 28.023438 171.34375 37.605469 177.378906 C 45.292969 176.171875 52.996094 176.695312 60.75 176.800781 C 60.832031 176.199219 60.898438 175.582031 60.992188 174.992188 C 61.246094 173.316406 62.414062 172.617188 63.664062 172.589844 C 63.730469 172.589844 63.769531 172.550781 63.835938 172.550781 C 66.589844 171.828125 69.378906 171.734375 72.183594 171.734375 C 72.089844 165.96875 72.007812 161.972656 71.984375 160.699219 C 66.734375 160.621094 61.488281 160.484375 56.242188 160.59375 C 55.828125 160.59375 55.4375 160.527344 55.101562 160.390625 C 52.484375 162.683594 50.203125 165.246094 46.6875 166.144531 C 45.304688 166.492188 44.191406 165.996094 43.46875 165.136719 C 42.890625 164.789062 42.382812 164.238281 42.097656 163.460938 C 38.890625 155.378906 40.085938 146.167969 41.363281 137.773438 C 41.671875 135.765625 43.308594 135.148438 44.851562 135.496094 C 45.132812 135.496094 45.441406 135.535156 45.789062 135.65625 C 48.660156 136.636719 51.144531 138.527344 54.027344 139.492188 C 54.859375 139.773438 55.4375 140.28125 55.800781 140.898438 C 62.011719 140.1875 68.277344 140.347656 74.53125 139.800781 C 74.867188 138.015625 76.503906 137.210938 78.0625 137.320312 C 78.0625 137.210938 78.113281 137.078125 78.140625 136.96875 C 77.015625 136.460938 75.886719 135.910156 74.800781 135.347656 C 43.160156 118.832031 31.472656 80.046875 49.238281 48.339844 C 65.570312 19.167969 105.71875 1.136719 136.714844 19.972656 C 151.664062 29.074219 163.148438 45.953125 168.046875 64.171875 C 169.429688 58.8125 171.523438 53.476562 174.394531 48.339844 C 190.738281 19.167969 230.871094 1.136719 261.871094 19.972656 C 290.4375 37.375 306.40625 83.128906 287.820312 112.53125 C 277.664062 126.632812 264.378906 136.394531 249.683594 140.804688 C 252.503906 140.722656 255.28125 140.550781 258.097656 140.242188 C 259.992188 140.039062 261.253906 141.902344 261.386719 143.527344 C 261.695312 147.078125 261.789062 150.660156 261.761719 154.277344 C 265.464844 154.480469 269.183594 154.960938 272.898438 155.285156 C 273.503906 155.324219 274.039062 155.550781 274.46875 155.820312 C 275.851562 156.074219 277.113281 157.105469 277.113281 158.945312 C 277.113281 159.910156 277.125 160.875 277.152344 161.839844 C 281.835938 161.773438 286.503906 161.585938 291.1875 161.867188 C 292.300781 161.933594 293.09375 162.441406 293.617188 163.140625 C 297.375 163.074219 301.132812 162.859375 304.820312 163.527344 C 305.035156 163.289062 305.304688 163.046875 305.628906 162.859375 C 336.878906 144.839844 371.835938 136.003906 404.816406 121.914062 C 405.582031 121.59375 406.320312 121.554688 406.992188 121.726562 C 408.898438 121.191406 411.273438 122.210938 411.21875 124.742188 C 410.519531 166.304688 410.425781 208.707031 413.042969 250.160156 C 413.109375 251.046875 412.867188 251.714844 412.453125 252.226562 C 411.796875 253.363281 410.519531 254.128906 408.871094 253.699219 C 390.648438 248.953125 372.25 244.53125 355.128906 236.445312 C 352.027344 235.011719 348.957031 233.496094 345.882812 231.957031 C 344.40625 233.324219 343.359375 234.8125 342.167969 236.472656 C 341.683594 237.128906 341.050781 237.613281 340.328125 237.878906 C 339.816406 238.402344 339.121094 238.753906 338.222656 238.820312 C 325.351562 239.785156 312.28125 238.632812 299.375 238.804688 C 286.25 238.980469 273.140625 239.15625 260.003906 239.167969 C 259.734375 244.4375 259.5625 249.707031 259.171875 254.921875 C 259.039062 256.730469 258.929688 258.835938 257.546875 260.214844 C 252.058594 265.699219 241.390625 263.421875 234.738281 262.710938 C 222.484375 261.4375 209.964844 261.15625 197.433594 261.195312 C 197.675781 264.640625 197.058594 268.070312 196.480469 271.492188 C 198.519531 272.910156 200.546875 274.359375 202.652344 275.699219 C 203.335938 276.144531 203.753906 276.679688 203.96875 277.296875 C 204.316406 277.777344 204.492188 278.433594 204.410156 279.226562 C 204.0625 283.113281 204.261719 287 204.277344 290.875 C 204.277344 291.761719 203.996094 292.429688 203.550781 292.96875 C 203.285156 293.449219 202.921875 293.839844 202.453125 294.214844 " fill-opacity="1" fill-rule="nonzero"/><path fill="#333333" d="M 386.191406 145.148438 C 393.71875 141.273438 397.261719 137.183594 396.953125 136.929688 C 396.539062 136.460938 392.605469 139.664062 385.078125 142.789062 C 381.320312 144.34375 376.773438 146.007812 371.566406 147.667969 C 369.003906 148.527344 366.210938 149.410156 363.421875 150.417969 C 360.523438 151.355469 357.785156 152.722656 354.820312 153.929688 C 348.929688 156.34375 343.574219 159.039062 338.636719 161.382812 C 333.738281 163.730469 329.351562 165.769531 325.660156 167.589844 C 318.011719 170.753906 313.34375 172.898438 313.515625 173.382812 C 313.691406 173.851562 318.65625 172.589844 326.535156 170.070312 C 330.371094 168.542969 335.027344 166.664062 340.058594 164.492188 C 345.066406 162.308594 350.511719 159.695312 356.269531 157.320312 C 359.167969 156.140625 361.933594 154.761719 364.667969 153.808594 C 367.460938 152.804688 370.144531 151.824219 372.707031 150.898438 C 377.847656 149.035156 382.460938 147.066406 386.191406 145.148438 Z M 398.589844 241.648438 C 398.886719 241.230469 394.820312 238.269531 387.910156 233.777344 C 384.355469 231.714844 380.222656 229.476562 375.296875 226.886719 C 370.34375 224.78125 364.855469 222.4375 359.074219 220.222656 C 356.242188 219.058594 353.277344 218.027344 350.753906 216.886719 C 348.125 215.746094 345.589844 214.511719 343.171875 213.359375 C 338.367188 211.027344 333.914062 209.015625 330.074219 207.515625 C 326.25 206.066406 322.910156 205.15625 320.667969 204.78125 C 318.414062 204.472656 317.140625 204.40625 317.074219 204.644531 C 317.03125 204.886719 318.1875 205.4375 320.347656 206.175781 C 322.496094 206.992188 325.394531 208.199219 329.042969 209.929688 C 332.664062 211.683594 336.894531 213.898438 341.667969 216.402344 C 344.058594 217.652344 346.554688 218.949219 349.265625 220.199219 C 352.042969 221.511719 354.792969 222.464844 357.71875 223.644531 C 363.449219 225.894531 368.9375 228.054688 373.914062 229.996094 C 378.730469 232.304688 383.050781 234.367188 386.703125 236.097656 C 393.746094 239.917969 398.308594 242.089844 398.589844 241.648438 Z M 404.574219 129.074219 C 403.957031 167.925781 403.957031 207.449219 406.238281 246.21875 C 388.714844 241.648438 371.5 236.914062 355.007812 229.152344 C 339.578125 221.886719 324.777344 213.480469 308.527344 208.199219 C 311.117188 194.925781 308.792969 181.480469 309.828125 168.058594 C 339.710938 151.035156 372.976562 142.1875 404.574219 129.074219 " fill-opacity="1" fill-rule="nonzero"/><path fill="#000000" d="M 387.910156 233.777344 C 394.820312 238.269531 398.886719 241.230469 398.589844 241.648438 C 398.308594 242.089844 393.746094 239.917969 386.703125 236.097656 C 383.050781 234.367188 378.730469 232.304688 373.914062 229.996094 C 368.9375 228.054688 363.449219 225.894531 357.71875 223.644531 C 354.792969 222.464844 352.042969 221.511719 349.265625 220.199219 C 346.554688 218.949219 344.058594 217.652344 341.667969 216.402344 C 336.894531 213.898438 332.664062 211.683594 329.042969 209.929688 C 325.394531 208.199219 322.496094 206.992188 320.347656 206.175781 C 318.1875 205.4375 317.03125 204.886719 317.074219 204.644531 C 317.140625 204.40625 318.414062 204.472656 320.667969 204.78125 C 322.910156 205.15625 326.25 206.066406 330.074219 207.515625 C 333.914062 209.015625 338.367188 211.027344 343.171875 213.359375 C 345.589844 214.511719 348.125 215.746094 350.753906 216.886719 C 353.277344 218.027344 356.242188 219.058594 359.074219 220.222656 C 364.855469 222.4375 370.34375 224.78125 375.296875 226.886719 C 380.222656 229.476562 384.355469 231.714844 387.910156 233.777344 " fill-opacity="1" fill-rule="nonzero"/><path fill="#000000" d="M 396.953125 136.929688 C 397.261719 137.183594 393.71875 141.273438 386.191406 145.148438 C 382.460938 147.066406 377.847656 149.035156 372.707031 150.898438 C 370.144531 151.824219 367.460938 152.804688 364.667969 153.808594 C 361.933594 154.761719 359.167969 156.140625 356.269531 157.320312 C 350.511719 159.695312 345.066406 162.308594 340.058594 164.492188 C 335.027344 166.664062 330.371094 168.542969 326.535156 170.070312 C 318.65625 172.589844 313.691406 173.851562 313.515625 173.382812 C 313.34375 172.898438 318.011719 170.753906 325.660156 167.589844 C 329.351562 165.769531 333.738281 163.730469 338.636719 161.382812 C 343.574219 159.039062 348.929688 156.34375 354.820312 153.929688 C 357.785156 152.722656 360.523438 151.355469 363.421875 150.417969 C 366.210938 149.410156 369.003906 148.527344 371.566406 147.667969 C 376.773438 146.007812 381.320312 144.34375 385.078125 142.789062 C 392.605469 139.664062 396.539062 136.460938 396.953125 136.929688 " fill-opacity="1" fill-rule="nonzero"/><path fill="#333333" d="M 321.3125 220.105469 C 321.179688 224.273438 321.59375 228.429688 321.703125 232.570312 C 316.792969 232.476562 311.839844 232.332031 306.929688 232.238281 C 306.929688 228.375 306.929688 220.8125 306.929688 214.605469 C 311.828125 216.203125 316.605469 218.066406 321.3125 220.105469 " fill-opacity="1" fill-rule="nonzero"/><path fill="#e6e6e6" d="M 303.132812 169.921875 C 302.472656 182.296875 304.527344 194.753906 302.058594 206.964844 C 299.160156 207.167969 296.207031 206.75 293.308594 206.46875 C 294.570312 194.242188 294.542969 181.988281 294.503906 169.695312 C 297.375 169.617188 300.300781 169.453125 303.132812 169.921875 " fill-opacity="1" fill-rule="nonzero"/><path fill="#808080" d="M 287.914062 168.339844 C 287.980469 181.75 288.15625 195.167969 286.503906 208.480469 C 283.917969 208.480469 281.902344 208.480469 278.871094 208.480469 C 279.5 203.15625 279.917969 197.847656 279.664062 192.300781 C 279.328125 184.28125 278.160156 176.386719 277.527344 168.421875 C 280.992188 168.355469 284.4375 168.273438 287.914062 168.339844 " fill-opacity="1" fill-rule="nonzero"/><path fill="#4d4d4d" d="M 260.835938 80.058594 C 262.246094 63.609375 246.519531 51.035156 231.394531 49.585938 C 213.695312 47.886719 198.277344 58.703125 197.273438 77.40625 C 196.761719 86.5625 198.15625 95.046875 205.269531 101.257812 C 212.289062 107.394531 222.109375 110.15625 231.289062 110.734375 C 231.542969 110.773438 231.839844 110.816406 232.160156 110.800781 C 232.507812 110.800781 232.84375 110.746094 233.152344 110.679688 C 248.757812 109.285156 259.546875 95.25 260.835938 80.058594 Z M 258.542969 25.65625 C 284.988281 39.679688 298.03125 84.082031 282.117188 109.191406 C 262.753906 136.113281 233.113281 143.863281 203.269531 129.664062 C 173.253906 115.359375 165.871094 80.234375 180.082031 51.652344 C 194.09375 23.511719 230.605469 10.871094 258.542969 25.65625 " fill-opacity="1" fill-rule="nonzero"/><path fill="#808080" d="M 272.765625 188.128906 C 273.703125 197.742188 272.5625 206.710938 271.25 216.136719 C 267.828125 216.09375 264.390625 215.878906 260.96875 215.71875 C 261.011719 206.226562 260.703125 196.722656 260.621094 187.273438 C 260.527344 178.625 261.253906 169.695312 261.601562 160.859375 C 264.621094 161.007812 267.597656 161.34375 270.589844 161.652344 C 270.792969 170.511719 271.878906 179.28125 272.765625 188.128906 " fill-opacity="1" fill-rule="nonzero"/><path fill="#000000" d="M 232.160156 104.21875 C 243.753906 103.574219 254.273438 91.804688 254.246094 80.058594 C 254.234375 67.644531 244.828125 58.34375 232.804688 56.410156 C 219.210938 54.226562 206.316406 60.5 204.167969 75.261719 C 203 83.4375 203.621094 92.835938 211.320312 97.597656 C 217.789062 101.605469 224.523438 103.871094 232.160156 104.21875 Z M 231.394531 49.585938 C 246.519531 51.035156 262.246094 63.609375 260.835938 80.058594 C 259.546875 95.25 248.757812 109.285156 233.152344 110.679688 C 232.84375 110.746094 232.507812 110.800781 232.160156 110.800781 C 231.839844 110.816406 231.542969 110.773438 231.289062 110.734375 C 222.109375 110.15625 212.289062 107.394531 205.269531 101.257812 C 198.15625 95.046875 196.761719 86.5625 197.273438 77.40625 C 198.277344 58.703125 213.695312 47.886719 231.394531 49.585938 " fill-opacity="1" fill-rule="nonzero"/><path fill="#e6e6e6" d="M 255 147.078125 C 255.414062 157.496094 253.992188 168.382812 253.992188 178.785156 C 253.992188 191.519531 254.273438 204.242188 254.207031 216.992188 C 254.207031 217.195312 254.207031 217.410156 254.195312 217.609375 C 253.925781 218.359375 253.898438 219.191406 254.140625 219.929688 C 253.925781 230.773438 252.851562 241.515625 252.582031 252.359375 C 252.367188 261.046875 230.011719 255.632812 223.695312 255.46875 C 198.816406 254.921875 173.871094 255.363281 148.964844 254.988281 C 136.929688 254.8125 124.90625 254.8125 112.871094 254.8125 C 102.226562 254.8125 89.898438 256.675781 79.402344 253.941406 C 79.710938 223.363281 78.625 191.761719 78.570312 162.390625 C 78.839844 162.441406 79.09375 162.441406 79.402344 162.414062 C 81.214844 162.214844 83.027344 162.082031 84.851562 161.933594 C 85.050781 189.992188 84.851562 218.09375 84.835938 245.777344 C 84.835938 246.328125 85.09375 246.742188 85.46875 247.023438 C 85.402344 248.054688 86.019531 249.128906 87.359375 249.117188 C 140.402344 249.0625 193.824219 245.160156 246.8125 247.199219 C 248.019531 247.25 248.636719 246.394531 248.691406 245.46875 C 249.230469 245.160156 249.617188 244.664062 249.617188 243.847656 C 249.539062 213.480469 249.445312 182.96875 249.054688 152.589844 C 249.027344 151.558594 248.140625 150.523438 247.070312 150.617188 C 238.160156 151.25 229.261719 151.179688 220.351562 151.140625 C 220.324219 149.90625 220.246094 148.6875 220.109375 147.453125 C 220.109375 147.320312 220.109375 147.1875 220.082031 147.039062 C 220.136719 147.066406 220.152344 147.066406 220.191406 147.066406 C 231.8125 147.171875 243.40625 147.976562 255 147.078125 " fill-opacity="1" fill-rule="nonzero"/><path fill="#333333" d="M 232.148438 91.601562 C 238.480469 91.363281 242.722656 81.667969 241.203125 76.253906 C 239.460938 70.046875 230.027344 67.78125 224.523438 68.679688 C 218.109375 69.710938 215.238281 76.574219 216.796875 82.539062 C 218.488281 89.027344 226.28125 91.441406 232.148438 91.601562 Z M 254.246094 80.058594 C 254.273438 91.804688 243.753906 103.574219 232.160156 104.21875 C 224.523438 103.871094 217.789062 101.605469 211.320312 97.597656 C 203.621094 92.835938 203 83.4375 204.167969 75.261719 C 206.316406 60.5 219.210938 54.226562 232.804688 56.410156 C 244.828125 58.34375 254.234375 67.644531 254.246094 80.058594 " fill-opacity="1" fill-rule="nonzero"/><path fill="#333333" d="M 178.015625 218.910156 C 178.109375 217.933594 177.050781 216.792969 176.042969 216.925781 C 151.03125 220.238281 125.121094 215.222656 100 217.410156 C 94.445312 217.890625 95.503906 236.5 96.792969 239.90625 C 96.996094 240.441406 97.371094 240.804688 97.8125 241.019531 C 98.070312 241.164062 98.363281 241.300781 98.710938 241.339844 C 105.488281 242.238281 112.347656 241.152344 119.175781 241.191406 C 127.589844 241.230469 135.976562 241.515625 144.375 241.675781 C 154.574219 241.847656 164.773438 241.609375 174.96875 241.714844 C 176.367188 241.742188 177.078125 240.46875 176.875 239.222656 C 175.976562 233.269531 177.535156 224.984375 178.015625 218.910156 Z M 245.136719 156.839844 C 245.269531 166.757812 244.988281 176.695312 244.773438 186.628906 C 244.371094 205.542969 245.578125 224.328125 245.671875 243.214844 C 227.878906 242.574219 210.035156 242.574219 192.1875 242.855469 C 192.964844 233.683594 191.675781 224.566406 191.636719 215.398438 C 207.308594 215.464844 222.980469 215.464844 238.667969 215.398438 C 239.742188 215.371094 240.640625 214.5 240.640625 213.414062 C 240.707031 198.71875 239.957031 184.027344 239.582031 169.347656 C 239.460938 163.40625 238.921875 163.101562 233.300781 162.992188 C 214.488281 162.5625 195.609375 164.441406 176.808594 164.800781 C 154.414062 165.246094 132.191406 162.457031 109.796875 162.859375 C 106.507812 162.925781 97.828125 161.824219 95.101562 164.519531 C 93.023438 166.613281 94.980469 171.625 95.210938 174.027344 C 96.027344 182.097656 96.3125 190.140625 95.8125 198.265625 C 95.585938 202.863281 95.691406 207.476562 95.640625 212.101562 C 95.640625 213.199219 96.550781 214.058594 97.613281 214.070312 C 127.628906 214.820312 157.660156 215.222656 187.679688 215.371094 C 187.71875 224.582031 189.019531 233.738281 188.226562 242.949219 C 155.070312 243.566406 121.847656 245.09375 88.78125 245.160156 C 88.808594 217.609375 88.996094 189.539062 88.808594 161.625 C 108.214844 160.269531 127.628906 160.792969 147.085938 161.664062 C 158.101562 162.175781 168.90625 161.585938 179.882812 160.859375 C 189.460938 160.246094 199.03125 160.835938 208.597656 160.835938 C 210.863281 161.316406 213.105469 162.148438 215.453125 161.730469 C 218.246094 161.25 219.601562 159.105469 220.042969 156.492188 C 220.136719 155.980469 220.175781 155.484375 220.21875 155.003906 C 227.289062 154.734375 245.121094 153.96875 245.136719 156.839844 " fill-opacity="1" fill-rule="nonzero"/><path fill="#000000" d="M 237.945312 81.441406 C 238.734375 78.464844 238.050781 75.675781 235.191406 74.054688 C 231.984375 72.21875 227.355469 70.917969 223.667969 72.191406 C 219.078125 73.785156 218.417969 81.375 221.707031 84.511719 C 224.566406 87.257812 228.28125 88.199219 232.148438 88.320312 C 234.644531 88.199219 237.433594 83.4375 237.945312 81.441406 Z M 241.203125 76.253906 C 242.722656 81.667969 238.480469 91.363281 232.148438 91.601562 C 226.28125 91.441406 218.488281 89.027344 216.796875 82.539062 C 215.238281 76.574219 218.109375 69.710938 224.523438 68.679688 C 230.027344 67.78125 239.460938 70.046875 241.203125 76.253906 " fill-opacity="1" fill-rule="nonzero"/><path fill="#e6e6e6" d="M 235.191406 74.054688 C 238.050781 75.675781 238.734375 78.464844 237.945312 81.441406 C 237.433594 83.4375 234.644531 88.199219 232.148438 88.320312 C 228.28125 88.199219 224.566406 87.257812 221.707031 84.511719 C 218.417969 81.375 219.078125 73.785156 223.667969 72.191406 C 227.355469 70.917969 231.984375 72.21875 235.191406 74.054688 " fill-opacity="1" fill-rule="nonzero"/><path fill="#e6e6e6" d="M 232.078125 208.828125 C 233.152344 208.828125 234.078125 207.929688 234.050781 206.859375 C 233.890625 195.085938 233.367188 183.304688 233.058594 171.519531 C 233.019531 170.472656 232.1875 169.546875 231.085938 169.546875 C 209.066406 169.761719 186.777344 172.523438 164.800781 170.996094 C 153.539062 170.207031 142.375 170.660156 131.117188 169.683594 C 122.007812 168.90625 112.667969 169.238281 103.558594 169.65625 C 102.578125 169.695312 101.488281 170.527344 101.585938 171.625 C 102.710938 183.101562 102.175781 194.230469 102.242188 205.691406 C 102.242188 206.792969 103.140625 207.648438 104.214844 207.675781 C 139.570312 208.480469 175.183594 208.882812 210.316406 208.882812 C 216.902344 208.882812 224.832031 208.882812 232.078125 208.828125 Z M 236.132812 185.3125 C 236.253906 188.691406 238.84375 211.441406 234.375 211.46875 C 224.417969 211.511719 214.449219 211.539062 204.476562 211.511719 C 184.511719 211.511719 164.558594 211.335938 144.605469 211.066406 C 134.632812 210.921875 124.664062 210.746094 114.695312 210.546875 C 110.414062 210.4375 106.144531 210.34375 101.894531 210.238281 C 97.785156 210.15625 99.652344 200.585938 99.757812 198.265625 C 100.347656 188.785156 99.71875 179.457031 98.753906 170.03125 C 98.417969 166.894531 96.363281 167.632812 100.308594 167.242188 C 102.75 167 105.207031 166.960938 107.648438 166.867188 C 116.976562 166.558594 126.570312 166.25 135.816406 167.75 C 144.132812 169.105469 152.898438 168.074219 161.269531 168.140625 C 170.382812 168.234375 179.316406 168.785156 188.441406 168.355469 C 198.722656 167.898438 208.972656 167.511719 219.25 167.175781 C 223.933594 167.027344 228.632812 166.894531 233.300781 166.933594 C 236.117188 166.960938 235.59375 166.34375 235.636719 169.347656 C 235.714844 174.683594 235.945312 179.992188 236.132812 185.3125 " fill-opacity="1" fill-rule="nonzero"/><path fill="#000000" d="M 210.316406 204.929688 C 212.515625 204.929688 230.148438 206.792969 230.054688 202.542969 C 229.90625 195.652344 229.664062 188.757812 229.421875 181.867188 C 229.394531 181.078125 229.917969 173.488281 228.335938 173.542969 C 225.222656 173.582031 222.109375 173.652344 218.984375 173.757812 C 214.394531 173.90625 209.820312 174.132812 205.214844 174.28125 C 191.742188 174.722656 178.285156 175.753906 164.800781 174.9375 C 154.761719 174.335938 144.441406 175.902344 134.472656 174.214844 C 128.945312 173.300781 123.429688 173.300781 117.808594 173.316406 C 114.425781 173.316406 105.597656 171.691406 105.933594 175.527344 C 106.550781 183.371094 106.683594 191 106.335938 198.828125 C 105.972656 206.484375 115.042969 203.960938 120.734375 204.070312 C 150.589844 204.644531 179.574219 204.929688 210.316406 204.929688 Z M 234.050781 206.859375 C 234.078125 207.929688 233.152344 208.828125 232.078125 208.828125 C 224.832031 208.882812 216.902344 208.882812 210.316406 208.882812 C 175.183594 208.882812 139.570312 208.480469 104.214844 207.675781 C 103.140625 207.648438 102.242188 206.792969 102.242188 205.691406 C 102.175781 194.230469 102.710938 183.101562 101.585938 171.625 C 101.488281 170.527344 102.578125 169.695312 103.558594 169.65625 C 112.667969 169.238281 122.007812 168.90625 131.117188 169.683594 C 142.375 170.660156 153.539062 170.207031 164.800781 170.996094 C 186.777344 172.523438 209.066406 169.761719 231.085938 169.546875 C 232.1875 169.546875 233.019531 170.472656 233.058594 171.519531 C 233.367188 183.304688 233.890625 195.085938 234.050781 206.859375 " fill-opacity="1" fill-rule="nonzero"/><path fill="#333333" d="M 132.78125 197.554688 C 139.640625 193.613281 141.53125 184.699219 135.976562 178.933594 C 131.292969 174.695312 125.011719 173.890625 119.941406 178.007812 C 115.6875 181.480469 112.828125 187.820312 115.175781 193.195312 C 118.167969 199.96875 126.917969 200.933594 132.78125 197.554688 Z M 163.523438 199.753906 C 170.382812 195.8125 172.261719 186.894531 166.703125 181.132812 C 162.035156 176.894531 155.753906 176.078125 150.683594 180.207031 C 146.414062 183.679688 143.570312 190.019531 145.917969 195.382812 C 148.898438 202.167969 157.660156 203.132812 163.523438 199.753906 Z M 196.46875 197.554688 C 203.308594 193.613281 205.203125 184.699219 199.648438 178.933594 C 194.964844 174.695312 188.683594 173.890625 183.613281 178.007812 C 179.359375 181.480469 176.5 187.820312 178.847656 193.195312 C 181.839844 199.96875 190.601562 200.933594 196.46875 197.554688 Z M 230.054688 202.542969 C 230.148438 206.792969 212.515625 204.929688 210.316406 204.929688 C 179.574219 204.929688 150.589844 204.644531 120.734375 204.070312 C 115.042969 203.960938 105.972656 206.484375 106.335938 198.828125 C 106.683594 191 106.550781 183.371094 105.933594 175.527344 C 105.597656 171.691406 114.425781 173.316406 117.808594 173.316406 C 123.429688 173.300781 128.945312 173.300781 134.472656 174.214844 C 144.441406 175.902344 154.761719 174.335938 164.800781 174.9375 C 178.285156 175.753906 191.742188 174.722656 205.214844 174.28125 C 209.820312 174.132812 214.394531 173.90625 218.984375 173.757812 C 222.109375 173.652344 225.222656 173.582031 228.335938 173.542969 C 229.917969 173.488281 229.394531 181.078125 229.421875 181.867188 C 229.664062 188.757812 229.90625 195.652344 230.054688 202.542969 " fill-opacity="1" fill-rule="nonzero"/><path fill="#e6e6e6" d="M 212.90625 142.601562 C 213.121094 144.453125 213.347656 146.289062 213.496094 148.136719 C 213.242188 148.59375 213.066406 149.144531 213.066406 149.800781 C 213.078125 151.25 213.039062 152.722656 213.039062 154.171875 C 212.289062 154.183594 211.5625 154.210938 210.824219 154.238281 C 210.757812 150.351562 210.652344 146.460938 210.625 142.5625 C 211.375 142.589844 212.140625 142.601562 212.90625 142.601562 " fill-opacity="1" fill-rule="nonzero"/><path fill="#333333" d="M 209.9375 308.425781 C 210.035156 314.070312 210.691406 319.6875 210.972656 325.304688 C 182.539062 323.855469 153.714844 324.097656 125.226562 324.445312 C 125.46875 319.445312 125.777344 314.457031 125.628906 309.484375 C 138.136719 312.449219 150.832031 310.90625 163.660156 309.898438 C 179.007812 308.71875 194.535156 308.117188 209.9375 308.425781 " fill-opacity="1" fill-rule="nonzero"/><path fill="#4d4d4d" d="M 204.71875 304.445312 C 192.375 304.390625 180.042969 304.964844 167.738281 305.691406 C 154.441406 306.480469 141.101562 308.667969 128.019531 305.972656 C 131.46875 304.148438 134.808594 302.179688 138.136719 300.179688 C 138.953125 299.671875 139.398438 299.039062 139.597656 298.34375 C 157.863281 298.492188 176.125 299.308594 194.402344 299.253906 C 194.640625 299.242188 194.855469 299.214844 195.058594 299.175781 C 195.582031 299.148438 196.105469 299.039062 196.613281 298.800781 C 196.65625 298.773438 196.683594 298.757812 196.722656 298.734375 C 199.273438 300.796875 202.023438 302.59375 204.71875 304.445312 " fill-opacity="1" fill-rule="nonzero"/><path fill="#333333" d="M 204.023438 142.414062 C 204.0625 146.355469 204.167969 150.308594 204.238281 154.25 C 199.582031 154.238281 194.949219 154.144531 190.292969 154.105469 C 190.199219 150.070312 189.824219 146.046875 189.300781 142.039062 C 194.199219 142.171875 199.125 142.304688 204.023438 142.414062 " fill-opacity="1" fill-rule="nonzero"/><path fill="#4d4d4d" d="M 199.957031 135.347656 C 200.238281 135.484375 200.519531 135.601562 200.816406 135.765625 C 184.335938 135.363281 167.914062 134.878906 151.339844 135.066406 C 146.722656 135.105469 142.09375 135.214844 137.480469 135.347656 C 147.019531 130.054688 155.59375 122.332031 162.664062 112.53125 C 165.496094 108.039062 167.523438 103.160156 168.824219 98.078125 C 173.5625 113.589844 184.324219 127.183594 199.957031 135.347656 " fill-opacity="1" fill-rule="nonzero"/><path fill="#000000" d="M 182.148438 190.664062 C 185.410156 202.140625 206.007812 191.238281 196.828125 181.722656 C 193.6875 178.867188 189.339844 178.140625 185.960938 181.144531 C 183.476562 183.382812 181.15625 187.164062 182.148438 190.664062 Z M 199.648438 178.933594 C 205.203125 184.699219 203.308594 193.613281 196.46875 197.554688 C 190.601562 200.933594 181.839844 199.96875 178.847656 193.195312 C 176.5 187.820312 179.359375 181.480469 183.613281 178.007812 C 188.683594 173.890625 194.964844 174.695312 199.648438 178.933594 " fill-opacity="1" fill-rule="nonzero"/><path fill="#b3b3b3" d="M 197.753906 280.324219 C 197.554688 283.460938 197.648438 286.574219 197.675781 289.722656 C 196.441406 290.796875 195.300781 291.894531 194.023438 292.660156 C 175.226562 292.699219 156.453125 291.828125 137.667969 291.707031 C 137.371094 291.492188 137.0625 291.277344 136.78125 291.050781 C 136.808594 286.625 136.847656 282.1875 136.875 277.765625 C 137.855469 277.429688 138.847656 277.109375 139.839844 276.773438 C 140.054688 276.707031 140.257812 276.625 140.445312 276.503906 C 144.308594 276.707031 175.292969 278.195312 191.742188 276.183594 C 191.8125 276.222656 191.851562 276.261719 191.917969 276.316406 C 193.878906 277.628906 195.808594 279.011719 197.753906 280.324219 " fill-opacity="1" fill-rule="nonzero"/><path fill="#b3b3b3" d="M 196.828125 181.722656 C 206.007812 191.238281 185.410156 202.140625 182.148438 190.664062 C 181.15625 187.164062 183.476562 183.382812 185.960938 181.144531 C 189.339844 178.140625 193.6875 178.867188 196.828125 181.722656 " fill-opacity="1" fill-rule="nonzero"/><path fill="#808080" d="M 190.859375 261.222656 C 191.300781 264.011719 190.683594 266.945312 190.160156 269.773438 C 175.144531 271.730469 159.527344 270.175781 143.570312 269.949219 C 143.503906 267.148438 143.636719 264.332031 143.933594 261.53125 C 145.609375 261.542969 147.300781 261.542969 148.964844 261.570312 C 162.757812 261.769531 176.835938 261.355469 190.859375 261.222656 " fill-opacity="1" fill-rule="nonzero"/><path fill="#e6e6e6" d="M 186.335938 154.105469 C 185.542969 154.105469 184.738281 154.105469 183.921875 154.105469 C 183.503906 154.105469 183.0625 154.128906 182.632812 154.144531 C 182.566406 150 181.988281 145.914062 181.359375 141.863281 C 182.699219 141.878906 184.015625 141.902344 185.328125 141.945312 C 185.894531 145.980469 186.253906 150.027344 186.335938 154.105469 " fill-opacity="1" fill-rule="nonzero"/><path fill="#000000" d="M 173.574219 227.917969 C 173.898438 219.984375 172.179688 221.257812 164.398438 221.378906 C 152.28125 221.578125 140.1875 220.960938 128.085938 220.988281 C 124.394531 221.015625 100.953125 219.675781 100.777344 223.269531 C 100.589844 227.289062 99.316406 233.335938 100.242188 237.546875 C 106.550781 238.121094 112.84375 237.15625 119.175781 237.238281 C 127.589844 237.359375 135.976562 237.613281 144.375 237.71875 C 153.863281 237.839844 163.375 237.707031 172.863281 237.773438 C 172.769531 234.460938 173.425781 231.511719 173.574219 227.917969 Z M 176.042969 216.925781 C 177.050781 216.792969 178.109375 217.933594 178.015625 218.910156 C 177.535156 224.984375 175.976562 233.269531 176.875 239.222656 C 177.078125 240.46875 176.367188 241.742188 174.96875 241.714844 C 164.773438 241.609375 154.574219 241.847656 144.375 241.675781 C 135.976562 241.515625 127.589844 241.230469 119.175781 241.191406 C 112.347656 241.152344 105.488281 242.238281 98.710938 241.339844 C 98.363281 241.300781 98.070312 241.164062 97.8125 241.019531 C 97.371094 240.804688 96.996094 240.441406 96.792969 239.90625 C 95.503906 236.5 94.445312 217.890625 100 217.410156 C 125.121094 215.222656 151.03125 220.238281 176.042969 216.925781 " fill-opacity="1" fill-rule="nonzero"/><path fill="#333333" d="M 177.386719 141.769531 C 178.015625 145.914062 178.632812 150.042969 178.699219 154.25 C 169.5625 154.652344 160.492188 155.566406 151.3125 155.3125 C 142.402344 155.042969 133.535156 154.695312 124.675781 154.519531 C 124.675781 152.011719 124.675781 146.449219 124.675781 142.425781 C 132.113281 142.117188 139.546875 141.863281 146.964844 141.703125 C 157.164062 141.488281 167.253906 141.570312 177.386719 141.769531 " fill-opacity="1" fill-rule="nonzero"/><path fill="#4d4d4d" d="M 120.691406 229.851562 C 122.074219 226.257812 118.773438 223.683594 115.699219 222.851562 C 110.871094 221.753906 105.796875 225.265625 106.9375 230.507812 C 107.714844 234.058594 110.898438 235.921875 114.34375 235.253906 C 117.148438 234.703125 119.671875 232.476562 120.691406 229.851562 Z M 144.84375 229.851562 C 146.226562 226.257812 142.925781 223.683594 139.855469 222.851562 C 135.023438 221.753906 129.949219 225.265625 131.089844 230.507812 C 131.871094 234.058594 135.050781 235.921875 138.5 235.253906 C 141.304688 234.703125 143.824219 232.476562 144.84375 229.851562 Z M 166.796875 229.851562 C 168.179688 226.257812 164.894531 223.683594 161.808594 222.851562 C 156.988281 221.753906 151.902344 225.265625 153.058594 230.507812 C 153.824219 234.058594 157.003906 235.921875 160.453125 235.253906 C 163.257812 234.703125 165.792969 232.476562 166.796875 229.851562 Z M 164.398438 221.378906 C 172.179688 221.257812 173.898438 219.984375 173.574219 227.917969 C 173.425781 231.511719 172.769531 234.460938 172.863281 237.773438 C 163.375 237.707031 153.863281 237.839844 144.375 237.71875 C 135.976562 237.613281 127.589844 237.359375 119.175781 237.238281 C 112.84375 237.15625 106.550781 238.121094 100.242188 237.546875 C 99.316406 233.335938 100.589844 227.289062 100.777344 223.269531 C 100.953125 219.675781 124.394531 221.015625 128.085938 220.988281 C 140.1875 220.960938 152.28125 221.578125 164.398438 221.378906 " fill-opacity="1" fill-rule="nonzero"/><path fill="#000000" d="M 149.207031 192.863281 C 152.480469 204.339844 173.078125 193.4375 163.898438 183.917969 C 160.761719 181.0625 156.414062 180.339844 153.03125 183.34375 C 150.546875 185.582031 148.226562 189.347656 149.207031 192.863281 Z M 166.703125 181.132812 C 172.261719 186.894531 170.382812 195.8125 163.523438 199.753906 C 157.660156 203.132812 148.898438 202.167969 145.917969 195.382812 C 143.570312 190.019531 146.414062 183.679688 150.683594 180.207031 C 155.753906 176.078125 162.035156 176.894531 166.703125 181.132812 " fill-opacity="1" fill-rule="nonzero"/><path fill="#000000" d="M 161.808594 222.851562 C 164.894531 223.683594 168.179688 226.257812 166.796875 229.851562 C 165.792969 232.476562 163.257812 234.703125 160.453125 235.253906 C 157.003906 235.921875 153.824219 234.058594 153.058594 230.507812 C 151.902344 225.265625 156.988281 221.753906 161.808594 222.851562 Z M 162.691406 227.476562 C 162.652344 227.476562 162.222656 227.195312 162.183594 227.167969 C 161.726562 226.925781 161.285156 226.808594 160.761719 226.644531 C 158.210938 226.082031 155.902344 228.484375 157.578125 230.882812 C 159.699219 233.925781 164.25 228.980469 162.691406 227.476562 " fill-opacity="1" fill-rule="nonzero"/><path fill="#b3b3b3" d="M 163.898438 183.917969 C 173.078125 193.4375 152.480469 204.339844 149.207031 192.863281 C 148.226562 189.347656 150.546875 185.582031 153.03125 183.34375 C 156.414062 180.339844 160.761719 181.0625 163.898438 183.917969 " fill-opacity="1" fill-rule="nonzero"/><path fill="#e6e6e6" d="M 162.691406 227.476562 C 164.25 228.980469 159.699219 233.925781 157.578125 230.882812 C 155.902344 228.484375 158.210938 226.082031 160.761719 226.644531 C 161.285156 226.808594 161.726562 226.925781 162.183594 227.167969 C 162.222656 227.195312 162.652344 227.476562 162.691406 227.476562 " fill-opacity="1" fill-rule="nonzero"/><path fill="#4d4d4d" d="M 137.882812 80.058594 C 139.289062 63.609375 123.5625 51.035156 108.441406 49.585938 C 90.742188 47.886719 75.324219 58.703125 74.316406 77.40625 C 73.808594 86.5625 75.191406 95.046875 82.300781 101.257812 C 89.332031 107.394531 99.140625 110.15625 108.320312 110.734375 C 108.589844 110.773438 108.871094 110.816406 109.207031 110.800781 C 109.554688 110.800781 109.890625 110.746094 110.199219 110.679688 C 125.804688 109.285156 136.578125 95.25 137.882812 80.058594 Z M 133.386719 25.65625 C 159.835938 39.679688 172.878906 84.082031 156.960938 109.191406 C 145.609375 124.984375 130.703125 134.15625 114.277344 136.207031 C 111.3125 136.328125 108.320312 136.460938 105.339844 136.59375 C 96.472656 136.3125 87.292969 134.035156 78.113281 129.664062 C 48.097656 115.359375 40.71875 80.234375 54.925781 51.652344 C 68.9375 23.511719 105.449219 10.871094 133.386719 25.65625 " fill-opacity="1" fill-rule="nonzero"/><path fill="#000000" d="M 141.089844 228.617188 C 141.128906 227.289062 140.015625 226.980469 138.808594 226.644531 C 134.125 225.398438 133.882812 232.425781 137.71875 232.050781 C 138.859375 231.914062 141.046875 229.785156 141.089844 228.617188 Z M 139.855469 222.851562 C 142.925781 223.683594 146.226562 226.257812 144.84375 229.851562 C 143.824219 232.476562 141.304688 234.703125 138.5 235.253906 C 135.050781 235.921875 131.871094 234.058594 131.089844 230.507812 C 129.949219 225.265625 135.023438 221.753906 139.855469 222.851562 " fill-opacity="1" fill-rule="nonzero"/><path fill="#e6e6e6" d="M 138.808594 226.644531 C 140.015625 226.980469 141.128906 227.289062 141.089844 228.617188 C 141.046875 229.785156 138.859375 231.914062 137.71875 232.050781 C 133.882812 232.425781 134.125 225.398438 138.808594 226.644531 " fill-opacity="1" fill-rule="nonzero"/><path fill="#000000" d="M 109.207031 104.21875 C 120.800781 103.574219 131.320312 91.804688 131.292969 80.058594 C 131.265625 67.644531 121.871094 58.34375 109.835938 56.410156 C 96.242188 54.226562 83.363281 60.5 81.214844 75.261719 C 80.046875 83.4375 80.664062 92.835938 88.367188 97.597656 C 94.820312 101.605469 101.558594 103.871094 109.207031 104.21875 Z M 108.441406 49.585938 C 123.5625 51.035156 139.289062 63.609375 137.882812 80.058594 C 136.578125 95.25 125.804688 109.285156 110.199219 110.679688 C 109.890625 110.746094 109.554688 110.800781 109.207031 110.800781 C 108.871094 110.816406 108.589844 110.773438 108.320312 110.734375 C 99.140625 110.15625 89.332031 107.394531 82.300781 101.257812 C 75.191406 95.046875 73.808594 86.5625 74.316406 77.40625 C 75.324219 58.703125 90.742188 47.886719 108.441406 49.585938 " fill-opacity="1" fill-rule="nonzero"/><path fill="#000000" d="M 118.464844 190.664062 C 121.738281 202.140625 142.335938 191.238281 133.15625 181.722656 C 130.019531 178.867188 125.671875 178.140625 122.289062 181.144531 C 119.804688 183.382812 117.484375 187.164062 118.464844 190.664062 Z M 135.976562 178.933594 C 141.53125 184.699219 139.640625 193.613281 132.78125 197.554688 C 126.917969 200.933594 118.167969 199.96875 115.175781 193.195312 C 112.828125 187.820312 115.6875 181.480469 119.941406 178.007812 C 125.011719 173.890625 131.292969 174.695312 135.976562 178.933594 " fill-opacity="1" fill-rule="nonzero"/><path fill="#b3b3b3" d="M 133.15625 181.722656 C 142.335938 191.238281 121.738281 202.140625 118.464844 190.664062 C 117.484375 187.164062 119.804688 183.382812 122.289062 181.144531 C 125.671875 178.140625 130.019531 178.867188 133.15625 181.722656 " fill-opacity="1" fill-rule="nonzero"/><path fill="#333333" d="M 109.179688 91.601562 C 115.527344 91.363281 119.765625 81.667969 118.25 76.253906 C 116.492188 70.046875 107.074219 67.78125 101.558594 68.679688 C 95.15625 69.710938 92.273438 76.574219 93.828125 82.539062 C 95.519531 89.027344 103.316406 91.441406 109.179688 91.601562 Z M 131.292969 80.058594 C 131.320312 91.804688 120.800781 103.574219 109.207031 104.21875 C 101.558594 103.871094 94.820312 101.605469 88.367188 97.597656 C 80.664062 92.835938 80.046875 83.4375 81.214844 75.261719 C 83.363281 60.5 96.242188 54.226562 109.835938 56.410156 C 121.871094 58.34375 131.265625 67.644531 131.292969 80.058594 " fill-opacity="1" fill-rule="nonzero"/><path fill="#000000" d="M 112.0625 230.855469 C 114.601562 233.160156 118.976562 227.636719 114.652344 226.644531 C 112.183594 226.097656 109.890625 228.910156 112.0625 230.855469 Z M 115.699219 222.851562 C 118.773438 223.683594 122.074219 226.257812 120.691406 229.851562 C 119.671875 232.476562 117.148438 234.703125 114.34375 235.253906 C 110.898438 235.921875 107.714844 234.058594 106.9375 230.507812 C 105.796875 225.265625 110.871094 221.753906 115.699219 222.851562 " fill-opacity="1" fill-rule="nonzero"/><path fill="#e6e6e6" d="M 120.289062 142.601562 C 120.289062 146.570312 120.289062 150.875 120.289062 154.453125 C 118.277344 154.414062 116.25 154.386719 114.210938 154.371094 C 113.769531 150.632812 113.511719 146.863281 113.273438 143.082031 C 114.078125 143.003906 114.894531 142.910156 115.699219 142.789062 C 117.242188 142.722656 118.761719 142.667969 120.289062 142.601562 " fill-opacity="1" fill-rule="nonzero"/><path fill="#000000" d="M 114.976562 81.441406 C 115.765625 78.464844 115.082031 75.675781 112.238281 74.054688 C 109.03125 72.21875 104.402344 70.917969 100.710938 72.191406 C 96.121094 73.785156 95.453125 81.375 98.753906 84.511719 C 101.609375 87.257812 105.316406 88.199219 109.179688 88.320312 C 111.6875 88.199219 114.480469 83.4375 114.976562 81.441406 Z M 118.25 76.253906 C 119.765625 81.667969 115.527344 91.363281 109.179688 91.601562 C 103.316406 91.441406 95.519531 89.027344 93.828125 82.539062 C 92.273438 76.574219 95.15625 69.710938 101.558594 68.679688 C 107.074219 67.78125 116.492188 70.046875 118.25 76.253906 " fill-opacity="1" fill-rule="nonzero"/><path fill="#e6e6e6" d="M 112.238281 74.054688 C 115.082031 75.675781 115.765625 78.464844 114.976562 81.441406 C 114.480469 83.4375 111.6875 88.199219 109.179688 88.320312 C 105.316406 88.199219 101.609375 87.257812 98.753906 84.511719 C 95.453125 81.375 96.121094 73.785156 100.710938 72.191406 C 104.402344 70.917969 109.03125 72.21875 112.238281 74.054688 " fill-opacity="1" fill-rule="nonzero"/><path fill="#e6e6e6" d="M 114.652344 226.644531 C 118.976562 227.636719 114.601562 233.160156 112.0625 230.855469 C 109.890625 228.910156 112.183594 226.097656 114.652344 226.644531 " fill-opacity="1" fill-rule="nonzero"/><path fill="#333333" d="M 109.339844 143.390625 C 109.554688 147.066406 109.824219 150.726562 110.253906 154.386719 C 104.925781 154.414062 99.558594 154.519531 94.203125 154.789062 C 94.230469 151.074219 93.707031 147.414062 93.507812 143.726562 C 96.511719 143.59375 99.519531 143.460938 102.523438 143.324219 C 104.816406 143.484375 107.074219 143.5 109.339844 143.390625 " fill-opacity="1" fill-rule="nonzero"/><path fill="#e6e6e6" d="M 86.917969 143.96875 C 87.160156 147.695312 87.683594 151.410156 87.617188 155.136719 C 85.710938 155.269531 83.804688 155.445312 81.886719 155.617188 C 80.664062 152.039062 80.773438 148.042969 80.917969 144.183594 C 82.917969 144.117188 84.917969 144.035156 86.917969 143.96875 " fill-opacity="1" fill-rule="nonzero"/><path fill="#333333" d="M 86.40625 278.636719 C 86.40625 281.359375 86.394531 284.050781 86.167969 286.761719 C 70.9375 285.863281 55.691406 286.144531 40.449219 286.210938 C 40.394531 282.496094 41.054688 278.90625 41.738281 275.230469 C 56.589844 274.988281 71.566406 277.699219 86.40625 278.636719 " fill-opacity="1" fill-rule="nonzero"/><path fill="#e6e6e6" d="M 74.382812 146.410156 C 74.382812 149.007812 74.492188 151.597656 74.90625 154.171875 C 69.015625 154.078125 63.167969 153.902344 57.277344 153.996094 C 56.765625 153.273438 57.035156 151.207031 57.074219 150.390625 C 57.128906 149.316406 57.300781 148.285156 57.515625 147.253906 C 63.113281 146.664062 68.777344 146.863281 74.382812 146.410156 " fill-opacity="1" fill-rule="nonzero"/><path fill="#b3b3b3" d="M 72.695312 207.890625 C 71.109375 207.917969 69.5 207.863281 68.039062 207.476562 C 66.414062 197.96875 65.835938 188.167969 67.085938 178.609375 C 68.800781 178.316406 70.535156 178.300781 72.292969 178.316406 C 72.425781 186.613281 72.558594 197.019531 72.695312 207.890625 " fill-opacity="1" fill-rule="nonzero"/><path fill="#b3b3b3" d="M 60.484375 200.410156 C 58.214844 200.449219 55.972656 200.503906 53.746094 200.558594 C 53.921875 194.765625 53.800781 188.972656 53.691406 183.195312 C 55.828125 183.25 57.960938 183.316406 60.082031 183.371094 C 59.730469 189.042969 59.90625 194.753906 60.484375 200.410156 " fill-opacity="1" fill-rule="nonzero"/><path fill="#e6e6e6" d="M 51.144531 145.390625 C 50.472656 148.59375 50.003906 152.199219 50.929688 155.324219 C 49.789062 156.355469 48.6875 157.5625 47.46875 158.515625 C 46.300781 153.621094 46.539062 148.445312 47.171875 143.417969 C 48.488281 144.101562 49.789062 144.800781 51.144531 145.390625 " fill-opacity="1" fill-rule="nonzero"/><path fill="#333333" d="M 49.75 183.101562 C 49.855469 188.960938 49.960938 194.832031 49.761719 200.691406 C 48.097656 200.746094 46.433594 200.785156 44.757812 200.796875 C 45.640625 194.96875 45.710938 189.066406 45.710938 183.167969 C 47.050781 183.128906 48.378906 183.074219 49.75 183.101562 " fill-opacity="1" fill-rule="nonzero"/><path fill="#e6e6e6" d="M 39.953125 183.652344 C 40.542969 183.558594 41.132812 183.503906 41.75 183.4375 C 41.75 189.242188 41.710938 195.085938 40.785156 200.824219 C 40.167969 200.824219 39.578125 200.824219 38.960938 200.796875 C 37.308594 195.71875 39.1875 189 39.953125 183.652344 " fill-opacity="1" fill-rule="nonzero"/><path fill="#333333" d="M 33.5 182.59375 C 32.855469 188.800781 31.082031 195.625 32.503906 201.816406 C 27.296875 205.636719 21.730469 210.410156 15.597656 213.441406 C 15.972656 200.167969 15.113281 186.871094 13.800781 173.664062 C 20.65625 175.996094 27.296875 178.796875 33.5 182.59375 " fill-opacity="1" fill-rule="nonzero"/><path fill="#e6e6e6" d="M 9.71875 172.335938 C 11.144531 186.519531 12.109375 200.851562 11.597656 215.101562 C 10.6875 215.4375 9.734375 215.679688 8.769531 215.878906 C 7.667969 207.742188 7.761719 199.578125 7.867188 191.347656 C 7.960938 184.859375 6.820312 178.167969 7.722656 171.71875 C 8.378906 171.921875 9.0625 172.109375 9.71875 172.335938 " fill-opacity="1" fill-rule="nonzero"/></svg>